<svg width="629" height="463" viewBox="0 0 629 463" fill="none" xmlns="http://www.w3.org/2000/svg">
<circle cx="365" cy="234" r="45" fill="#2A8BF2" fill-opacity="0.2"/>
<g clip-path="url(#clip0)">
<path d="M93.2486 328.207C92.7325 327.412 92.0514 326.741 91.2533 326.243C90.4551 325.745 89.5594 325.43 88.6291 325.323C87.6988 325.215 86.7566 325.316 85.8688 325.619C84.9811 325.922 84.1694 326.419 83.4909 327.076L63.2664 316.448L64.5236 328.421L83.5365 336.678C84.696 337.766 86.207 338.382 87.7831 338.411C89.3593 338.44 90.891 337.879 92.0882 336.835C93.2853 335.791 94.0647 334.336 94.2785 332.745C94.4924 331.155 94.1259 329.541 93.2486 328.207H93.2486Z" fill="#A0616A"/>
<path d="M75.2749 333.027C74.9089 333.197 74.5117 333.288 74.1091 333.292C73.7065 333.297 73.3075 333.215 72.9381 333.052L53.7276 324.568C47.1591 321.668 41.8488 316.438 38.7845 309.85L28.6851 288.146C27.9398 287.171 27.3905 286.056 27.0687 284.865C26.7469 283.674 26.6589 282.43 26.8097 281.204C26.9605 279.978 27.3471 278.795 27.9475 277.721C28.5479 276.648 29.3503 275.705 30.3087 274.947C31.2672 274.19 32.3629 273.632 33.5333 273.306C34.7037 272.98 35.9258 272.891 37.1296 273.046C38.3334 273.202 39.4955 273.597 40.5492 274.209C41.603 274.822 42.5278 275.64 43.2708 276.617L61.0231 310.149L77.415 322.756C77.8842 323.118 78.2327 323.619 78.4134 324.19C78.5942 324.76 78.5984 325.374 78.4255 325.947L76.8166 331.238C76.6438 331.805 76.3053 332.305 75.8461 332.672C75.6701 332.813 75.4784 332.932 75.2749 333.027Z" fill="#CCCCCC"/>
<path d="M28.2407 262.621C36.8801 262.621 43.8837 255.491 43.8837 246.695C43.8837 237.899 36.8801 230.769 28.2407 230.769C19.6012 230.769 12.5976 237.899 12.5976 246.695C12.5976 255.491 19.6012 262.621 28.2407 262.621Z" fill="#A0616A"/>
<path d="M34.577 455.618L42.3848 455.618L46.0999 424.954L34.5751 424.955L34.577 455.618Z" fill="#A0616A"/>
<path d="M57.4442 462.999L32.9038 463L32.9033 453.347L47.9622 453.346C50.4769 453.346 52.8886 454.363 54.6668 456.173C56.445 457.984 57.4441 460.439 57.4442 462.999L57.4442 462.999Z" fill="#2F2E41"/>
<path d="M9.10073 455.618L16.9086 455.618L20.6236 424.954L9.09882 424.955L9.10073 455.618Z" fill="#A0616A"/>
<path d="M31.968 462.999L7.42757 463L7.42713 453.347L22.486 453.346C25.0007 453.346 27.4124 454.363 29.1906 456.173C30.9688 457.984 31.9679 460.439 31.968 462.999L31.968 462.999Z" fill="#2F2E41"/>
<path d="M6.374 446.841C6.10496 446.528 5.90468 446.161 5.7866 445.763C5.66851 445.365 5.63535 444.946 5.68933 444.534L19.3603 340.145L53.3256 346.018L56.9505 343.804L47.5768 442.848C47.4988 443.517 47.1967 444.137 46.7215 444.606C46.2462 445.074 45.6269 445.361 44.9679 445.418L34.6833 446.291C34.2745 446.326 33.863 446.271 33.4768 446.13C33.0906 445.989 32.7387 445.765 32.4448 445.473C32.151 445.182 31.922 444.829 31.7735 444.44C31.6249 444.05 31.5603 443.633 31.5839 443.216L34.2466 396.047C34.2513 395.967 34.2266 395.888 34.1773 395.826C34.1281 395.763 34.0577 395.721 33.9799 395.708C33.9021 395.695 33.8223 395.712 33.7561 395.756C33.6898 395.799 33.6417 395.866 33.6212 395.944L20.448 445.679C20.2832 446.298 19.9231 446.844 19.423 447.235C18.923 447.625 18.3108 447.836 17.6808 447.837H8.53041C8.12201 447.837 7.71831 447.748 7.3464 447.577C6.97448 447.405 6.64294 447.154 6.374 446.841Z" fill="#2F2E41"/>
<path d="M29.8964 347.452C29.5066 347.093 29.0054 346.884 28.48 346.861C27.9545 346.839 27.438 347.005 27.0201 347.33L20.2295 352.707C19.86 353.001 19.4253 353.198 18.9637 353.28C18.5021 353.363 18.0277 353.329 17.5821 353.181C17.1364 353.033 16.7332 352.776 16.4077 352.433C16.0823 352.09 15.8446 351.67 15.7155 351.212C12.3846 339.335 4.83817 309.441 6.69726 288.4C7.75106 276.474 17.8668 267.41 29.2469 268.17C37.0271 268.699 42.1455 273.268 44.4601 281.751C50.1429 302.58 56.3882 340.787 57.5824 348.236C57.6767 348.813 57.5972 349.407 57.3543 349.938C57.1115 350.469 56.7167 350.913 56.2217 351.211C53.0087 353.175 49.3378 354.227 45.5905 354.257C41.0563 354.257 35.6196 352.65 29.8964 347.452Z" fill="#CCCCCC"/>
<path d="M32.4587 354.862C32.5347 353.911 32.4052 352.956 32.0793 352.062C31.7534 351.169 31.239 350.359 30.5723 349.689C29.9057 349.02 29.103 348.508 28.2207 348.188C27.3385 347.869 26.3983 347.75 25.4662 347.841L15.9943 326.771L9.72614 336.982L19.6818 355.425C19.9352 357.009 20.7505 358.444 21.9732 359.457C23.196 360.469 24.7412 360.991 26.3161 360.921C27.891 360.852 29.3862 360.196 30.5183 359.08C31.6504 357.963 32.3408 356.462 32.4587 354.862Z" fill="#A0616A"/>
<path d="M15.3946 347.361C15.003 347.266 14.6356 347.087 14.3161 346.838C13.9967 346.588 13.7324 346.273 13.5404 345.913L3.56701 327.167C0.156244 320.758 -0.851932 313.306 0.730013 306.197L5.93893 282.774C5.94365 281.539 6.18744 280.317 6.65637 279.178C7.1253 278.038 7.81018 277.004 8.67183 276.135C9.53349 275.265 10.555 274.577 11.6781 274.11C12.8011 273.642 14.0036 273.405 15.2169 273.411C16.4301 273.417 17.6303 273.666 18.7488 274.145C19.8673 274.623 20.8822 275.322 21.7355 276.2C22.5887 277.078 23.2636 278.119 23.7216 279.262C24.1796 280.406 24.4117 281.631 24.4045 282.866L18.0473 320.405L23.3041 340.624C23.4535 341.204 23.4244 341.817 23.2207 342.379C23.017 342.942 22.6484 343.427 22.1649 343.77L17.692 346.922C17.2121 347.26 16.6425 347.441 16.0591 347.441C15.8353 347.441 15.6122 347.414 15.3946 347.361Z" fill="#CCCCCC"/>
<path opacity="0.2" d="M23.1356 298.697L17.4034 323.338L25.6832 344.088L19.9511 323.986L23.1356 298.697Z" fill="black"/>
<path d="M19.314 259.791C17.9225 259.818 16.5396 259.563 15.2454 259.042C14.6759 258.819 14.0848 258.635 13.5164 258.411C8.49649 256.437 5.18969 250.994 5.07126 245.516C4.95283 240.039 7.73905 234.722 11.8764 231.218C16.0137 227.715 21.3725 225.916 26.7386 225.5C32.5186 225.052 39.0272 226.544 42.257 231.445C43.1167 232.749 43.718 234.332 43.2085 235.907C43.0559 236.382 42.7834 236.809 42.4183 237.143C40.9759 238.449 39.5379 237.467 38.0675 237.38C36.0464 237.261 34.2311 238.927 33.5787 240.878C32.9263 242.829 33.2135 244.977 33.7403 246.967C34.1416 248.164 34.3946 249.408 34.4934 250.67C34.5359 251.302 34.4191 251.935 34.154 252.509C33.8888 253.082 33.4842 253.577 32.9785 253.947C31.7156 254.724 30.057 254.275 28.7934 253.499C27.5297 252.723 26.4378 251.644 25.0729 251.073C23.7079 250.502 21.874 250.628 21.0796 251.895C20.8271 252.355 20.6562 252.858 20.5747 253.379C19.8625 256.682 20.0262 256.488 19.3139 259.791L19.314 259.791Z" fill="#2F2E41"/>
<path d="M482.35 149.451H95.7486C94.276 149.452 92.8641 150.048 91.8228 151.109C90.7815 152.169 90.1959 153.606 90.1946 155.105V421.819C90.196 423.319 90.7815 424.756 91.8228 425.816C92.8641 426.876 94.276 427.472 95.7486 427.474H482.35C483.153 427.474 483.947 427.296 484.676 426.954C485.405 426.611 486.052 426.112 486.573 425.489C486.617 425.441 486.658 425.389 486.694 425.334C487.026 424.921 487.294 424.46 487.49 423.966C487.77 423.286 487.913 422.556 487.91 421.819V255.788H486.325V421.819C486.325 422.608 486.097 423.38 485.669 424.037C485.288 424.615 484.771 425.088 484.165 425.412C483.604 425.707 482.982 425.86 482.35 425.859H95.7486C94.6966 425.858 93.688 425.432 92.9441 424.675C92.2002 423.917 91.7817 422.89 91.7804 421.819V155.105C91.7817 154.034 92.2002 153.008 92.9441 152.25C93.688 151.493 94.6966 151.067 95.7486 151.066H482.35C483.403 151.066 484.413 151.491 485.158 152.248C485.904 153.006 486.323 154.033 486.325 155.105V190.944H487.91V155.105C487.909 153.605 487.322 152.167 486.28 151.107C485.237 150.047 483.824 149.451 482.35 149.451Z" fill="#3F3D56"/>
<path d="M487.113 172.116H90.9852V173.732H487.113V172.116Z" fill="#3F3D56"/>
<path d="M104.481 166.426C107.111 166.426 109.244 164.255 109.244 161.577C109.244 158.898 107.111 156.727 104.481 156.727C101.85 156.727 99.7175 158.898 99.7175 161.577C99.7175 164.255 101.85 166.426 104.481 166.426Z" fill="#CCCCCC"/>
<path d="M118.174 166.426C120.805 166.426 122.937 164.255 122.937 161.577C122.937 158.898 120.805 156.727 118.174 156.727C115.544 156.727 113.411 158.898 113.411 161.577C113.411 164.255 115.544 166.426 118.174 166.426Z" fill="#CCCCCC"/>
<path d="M131.868 166.426C134.499 166.426 136.631 164.255 136.631 161.577C136.631 158.898 134.499 156.727 131.868 156.727C129.238 156.727 127.105 158.898 127.105 161.577C127.105 164.255 129.238 166.426 131.868 166.426Z" fill="#CCCCCC"/>
<path d="M582.713 239.092H470.617C469.266 239.092 467.97 238.545 467.014 237.573C466.059 236.6 465.522 235.28 465.522 233.904C465.522 232.529 466.059 231.209 467.014 230.236C467.97 229.263 469.266 228.717 470.617 228.717H582.713C584.064 228.717 585.36 229.263 586.316 230.236C587.271 231.209 587.808 232.529 587.808 233.904C587.808 235.28 587.271 236.6 586.316 237.573C585.36 238.545 584.064 239.092 582.713 239.092Z" fill="#CCCCCC"/>
<path d="M509.469 217.045H470.617C469.266 217.045 467.97 216.499 467.014 215.526C466.059 214.553 465.522 213.233 465.522 211.858C465.522 210.482 466.059 209.162 467.014 208.19C467.97 207.217 469.266 206.67 470.617 206.67H509.469C510.82 206.67 512.116 207.217 513.072 208.19C514.027 209.162 514.564 210.482 514.564 211.858C514.564 213.233 514.027 214.553 513.072 215.526C512.116 216.499 510.82 217.045 509.469 217.045Z" fill="#CCCCCC"/>
<path d="M419.845 245.413C431.805 245.413 441.5 235.542 441.5 223.366C441.5 211.19 431.805 201.319 419.845 201.319C407.886 201.319 398.191 211.19 398.191 223.366C398.191 235.542 407.886 245.413 419.845 245.413Z" fill="#60A9F6"/>
<path d="M593.949 189.648H392.05C389.179 189.652 386.428 190.814 384.398 192.881C382.368 194.947 381.226 197.749 381.222 200.671V246.061C381.226 248.984 382.368 251.785 384.398 253.851C386.428 255.918 389.179 257.081 392.05 257.085H593.949C596.819 257.081 599.571 255.918 601.601 253.851C603.63 251.785 604.772 248.984 604.776 246.061V200.671C604.772 197.749 603.63 194.947 601.601 192.881C599.571 190.814 596.819 189.652 593.949 189.648ZM603.502 246.061C603.499 248.64 602.492 251.112 600.701 252.935C598.91 254.759 596.482 255.785 593.949 255.788H392.05C389.517 255.785 387.089 254.759 385.298 252.935C383.507 251.112 382.499 248.64 382.496 246.061V200.671C382.499 198.092 383.507 195.62 385.298 193.797C387.089 191.973 389.517 190.948 392.05 190.944H593.949C596.482 190.948 598.91 191.973 600.701 193.797C602.492 195.62 603.499 198.092 603.502 200.671V246.061Z" fill="#3F3D56"/>
<path d="M603.503 207.804C611.593 207.804 618.151 201.126 618.151 192.89C618.151 184.653 611.593 177.976 603.503 177.976C595.412 177.976 588.854 184.653 588.854 192.89C588.854 201.126 595.412 207.804 603.503 207.804Z" fill="#60A9F6"/>
<path d="M603.052 201.277C602.993 201.217 602.946 201.146 602.914 201.067C602.882 200.988 602.865 200.904 602.866 200.819V184.312C602.866 184.14 602.933 183.975 603.052 183.854C603.172 183.732 603.334 183.664 603.502 183.664C603.671 183.664 603.833 183.732 603.953 183.854C604.072 183.975 604.139 184.14 604.139 184.312V200.819C604.139 200.947 604.102 201.072 604.032 201.179C603.962 201.286 603.863 201.369 603.746 201.418C603.63 201.467 603.502 201.48 603.378 201.455C603.255 201.43 603.141 201.368 603.052 201.277Z" fill="white"/>
<path d="M594.946 193.024C594.857 192.933 594.796 192.818 594.771 192.692C594.747 192.566 594.759 192.436 594.808 192.317C594.856 192.199 594.938 192.098 595.042 192.026C595.147 191.955 595.27 191.917 595.396 191.917H611.609C611.778 191.917 611.94 191.985 612.059 192.107C612.179 192.229 612.246 192.394 612.246 192.565C612.246 192.737 612.179 192.902 612.059 193.024C611.94 193.146 611.778 193.214 611.609 193.214H595.396C595.312 193.214 595.23 193.197 595.152 193.165C595.075 193.132 595.005 193.084 594.946 193.024Z" fill="white"/>
<path d="M621.039 391.12H590.461C590.461 392.015 558.947 392.741 558.947 392.741C558.452 393.12 558.001 393.556 557.603 394.038C556.406 395.492 555.752 397.329 555.756 399.226V400.522C555.757 402.672 556.596 404.733 558.089 406.253C559.581 407.773 561.606 408.627 563.717 408.628H621.039C623.15 408.626 625.173 407.771 626.666 406.252C628.159 404.732 628.998 402.672 629 400.522V399.226C628.997 397.077 628.157 395.017 626.665 393.498C625.173 391.978 623.149 391.123 621.039 391.12Z" fill="#3F3D56"/>
<path d="M596.833 408.306H588.553V462.774H596.833V408.306Z" fill="#3F3D56"/>
<path d="M620.399 462.478C620.399 463.389 607.852 462.831 592.375 462.831C576.898 462.831 564.351 463.389 564.351 462.478C564.351 461.567 576.898 454.345 592.375 454.345C607.852 454.345 620.399 461.567 620.399 462.478Z" fill="#3F3D56"/>
<path d="M595.35 318.127C605.199 318.127 613.183 309.998 613.183 299.971C613.183 289.944 605.199 281.815 595.35 281.815C585.501 281.815 577.516 289.944 577.516 299.971C577.516 309.998 585.501 318.127 595.35 318.127Z" fill="#2F2E41"/>
<path d="M550.97 455.314L543.162 455.314L539.447 424.65L550.971 424.651L550.97 455.314Z" fill="#FFB8B8"/>
<path d="M537.584 453.042H552.643V462.695H528.102C528.102 460.135 529.101 457.68 530.88 455.87C532.658 454.059 535.069 453.042 537.584 453.042Z" fill="#2F2E41"/>
<path d="M538.781 450.877L531.331 448.497L536.803 418.108L547.799 421.621L538.781 450.877Z" fill="#FFB8B8"/>
<path d="M526.677 444.63L541.045 449.22L538.207 458.43L514.792 450.95C515.545 448.507 517.22 446.469 519.449 445.283C521.678 444.098 524.278 443.863 526.677 444.63Z" fill="#2F2E41"/>
<path d="M600.127 385.805C599.947 384.26 599.622 382.736 599.159 381.253L597.7 379.385L593.904 374.535L593.739 374.542C593.458 374.555 592.293 374.619 590.491 374.762H590.471C589.357 374.853 587.994 374.969 586.446 375.119C586.038 375.164 585.612 375.203 585.172 375.248V382.018H593.134C593.521 382.018 593.894 382.162 594.185 382.422C594.475 382.682 594.663 383.041 594.713 383.432C594.719 383.503 594.726 383.568 594.726 383.639C594.726 384.069 594.558 384.481 594.259 384.785C593.961 385.089 593.556 385.26 593.134 385.26H546.894C546.305 385.658 545.739 386.091 545.2 386.557C543.571 387.841 542.397 389.63 541.856 391.654C539.156 403.741 534.232 426.28 532.78 432.901C532.675 433.399 532.699 433.918 532.85 434.404C533 434.891 533.273 435.329 533.64 435.676C533.911 435.933 534.229 436.134 534.576 436.266L540.321 438.458C540.557 438.547 540.803 438.605 541.054 438.633C541.085 438.633 541.111 438.639 541.143 438.639C541.202 438.645 541.262 438.647 541.321 438.646C541.902 438.643 542.469 438.463 542.947 438.127C543.426 437.792 543.793 437.317 544.003 436.765L548.537 424.653L555.524 405.978L558.288 398.592C561.492 399.357 588.37 405.413 597.369 395.655C598.257 394.693 598.957 393.569 599.433 392.341C600.19 390.254 600.429 388.009 600.127 385.805Z" fill="#2F2E41"/>
<path d="M607.922 387.569C607.782 386.991 607.623 386.395 607.438 385.792L602.184 379.074L602.018 379.081C601.687 379.1 600.114 379.184 597.7 379.385C594.962 379.619 591.134 379.995 586.834 380.585C586.707 380.598 586.574 380.617 586.446 380.637C586.026 380.695 585.599 380.754 585.172 380.818V382.018H593.134C593.52 382.019 593.894 382.162 594.185 382.422C594.475 382.682 594.663 383.041 594.713 383.432C594.719 383.503 594.726 383.568 594.726 383.639C594.726 384.069 594.558 384.481 594.259 384.785C593.961 385.089 593.556 385.26 593.134 385.26H564.995C563.766 385.669 562.581 386.097 561.447 386.557C555.499 388.956 551.047 392.101 550.136 396.193C549.83 397.567 549.493 399.078 549.136 400.686C547.811 406.665 546.2 413.986 544.741 420.639V420.645C544.442 422.02 544.143 423.356 543.856 424.653C542.639 430.229 541.608 434.956 541.06 437.44C541.047 437.511 541.035 437.576 541.022 437.647V437.66C540.958 438.162 541.02 438.673 541.2 439.145L541.206 439.151V439.158C541.382 439.61 541.667 440.009 542.035 440.319C542.281 440.525 542.558 440.69 542.856 440.805L548.601 442.997C548.921 443.118 549.259 443.182 549.601 443.185C550.08 443.186 550.551 443.063 550.97 442.828C551.572 442.496 552.038 441.955 552.282 441.304L564.651 408.26L566.568 403.131C569.772 403.896 596.649 409.946 605.649 400.193C607.427 398.234 608.441 395.682 608.502 393.015C608.565 391.181 608.37 389.347 607.922 387.569Z" fill="#2F2E41"/>
<path d="M607.215 330.364C607.114 330.24 607.005 330.117 606.891 330.001C605.194 328.185 603.1 326.804 600.778 325.971C598.457 325.138 595.974 324.877 593.535 325.209C591.406 325.493 589.298 325.916 587.223 326.473C584.542 327.175 582.088 328.576 580.102 330.539C578.556 332.066 577.337 333.903 576.525 335.935C575.712 337.966 575.324 340.148 575.383 342.34C575.408 343.229 575.415 344.136 575.402 345.057C575.402 345.485 575.396 345.92 575.389 346.354H581.669C581.942 346.353 582.213 346.386 582.478 346.451C583.244 346.638 583.927 347.081 584.416 347.711C584.904 348.34 585.171 349.118 585.172 349.92V380.086C585.599 380.209 586.026 380.332 586.446 380.462C586.58 380.507 586.707 380.546 586.834 380.585C586.981 380.63 587.127 380.676 587.268 380.721C588.56 381.13 589.824 381.562 591.057 382.018H593.134C593.52 382.018 593.894 382.162 594.185 382.422C594.475 382.682 594.663 383.041 594.713 383.431C595.146 383.607 595.566 383.782 595.98 383.957C597.452 384.579 598.846 385.202 600.127 385.805C601.853 386.609 603.388 387.374 604.674 388.042C605.079 388.252 605.526 388.363 605.98 388.366C606.576 388.364 607.156 388.169 607.636 387.808C607.735 387.734 607.831 387.653 607.922 387.568C608.263 387.243 608.521 386.838 608.673 386.388C608.825 385.938 608.867 385.458 608.795 384.988C608.137 379.894 607.946 374.749 608.222 369.62C608.4 365.308 608.782 360.885 609.279 356.612C609.547 354.297 609.846 352.028 610.158 349.843C610.457 347.755 610.776 345.751 611.088 343.858C611.497 341.457 611.361 338.992 610.69 336.653C610.019 334.314 608.83 332.163 607.215 330.364Z" fill="#60A9F6"/>
<path d="M581.109 330.895C580.782 330.753 580.446 330.633 580.102 330.539C578.405 330.073 576.6 330.245 575.017 331.023C573.434 331.8 572.178 333.131 571.479 334.773L567.103 345.057L566.555 346.354H581.669C581.942 346.353 582.213 346.386 582.478 346.451L582.987 345.252L584.924 340.7C585.693 338.884 585.723 336.832 585.008 334.994C584.293 333.156 582.89 331.682 581.109 330.895Z" fill="#60A9F6"/>
<path d="M594.698 320.145C603.337 320.145 610.341 313.015 610.341 304.219C610.341 295.423 603.337 288.293 594.698 288.293C586.058 288.293 579.055 295.423 579.055 304.219C579.055 313.015 586.058 320.145 594.698 320.145Z" fill="#FFB8B8"/>
<path d="M578.773 296.394C586.183 300.999 594.536 303.802 603.183 304.583L600.61 301.444C602.484 302.15 604.455 302.548 606.451 302.625C608.445 302.594 610.534 301.812 611.665 300.141C612.17 299.31 612.47 298.367 612.539 297.392C612.608 296.418 612.445 295.441 612.063 294.545C611.279 292.757 610.059 291.203 608.518 290.032C605.787 287.832 602.564 286.355 599.137 285.731C595.709 285.108 592.183 285.357 588.873 286.457C586.603 287.148 584.569 288.476 583.006 290.289C581.523 292.151 578.668 293.811 579.427 296.081L578.773 296.394Z" fill="#2F2E41"/>
<path d="M597.328 283.542C592.394 278.448 586.424 274.517 579.837 272.026C575.608 270.431 571.006 269.446 566.586 270.352C562.165 271.257 557.985 274.371 556.752 278.786C555.743 282.397 556.785 286.285 558.349 289.684C559.914 293.083 562.004 296.235 563.269 299.76C564.561 303.358 564.949 307.227 564.399 311.016C563.849 314.805 562.379 318.394 560.121 321.458C557.863 324.521 554.889 326.962 551.469 328.559C548.05 330.156 544.292 330.858 540.539 330.601C544.882 331.194 548.886 333.272 553.131 334.378C557.376 335.484 562.387 335.409 565.542 332.313C568.88 329.037 568.947 323.71 568.785 318.993C568.545 311.98 568.305 304.967 568.066 297.954C567.943 294.378 567.839 290.687 569.106 287.349C570.372 284.011 573.383 281.088 576.898 281.118C579.562 281.141 581.92 282.784 584.056 284.404C586.192 286.024 588.453 287.753 591.107 287.994C593.76 288.235 596.79 286.236 596.591 283.531L597.328 283.542Z" fill="#2F2E41"/>
<path d="M610.158 349.843L601.229 350.089L600.579 356.476L600.432 357.955L586.446 364.348L585.172 364.932V376.299L586.446 375.929L590.471 374.762H590.49L608.222 369.62L608.425 369.562C609.858 369.14 611.119 368.26 612.021 367.051C612.923 365.842 613.418 364.368 613.432 362.85L613.476 355.309L613.514 349.752L610.158 349.843Z" fill="#FFB8B8"/>
<path d="M613.062 337.211C612.943 335.237 612.059 333.392 610.603 332.081C609.148 330.771 607.241 330.103 605.302 330.224C603.362 330.346 601.55 331.246 600.263 332.728C598.976 334.21 598.32 336.151 598.439 338.125L599.413 354.31C599.44 354.736 599.558 355.151 599.759 355.525C599.961 355.9 600.24 356.224 600.579 356.476C601.117 356.885 601.781 357.085 602.451 357.04L609.279 356.612L611.349 356.483C611.726 356.464 612.095 356.367 612.435 356.199C612.774 356.031 613.076 355.794 613.324 355.503C613.378 355.442 613.429 355.377 613.476 355.309C613.881 354.757 614.08 354.077 614.037 353.39L613.062 337.211Z" fill="#60A9F6"/>
<path d="M587.268 380.721H586.446V380.637C586.026 380.695 585.599 380.754 585.172 380.818V382.018H591.057C589.821 381.564 588.558 381.132 587.268 380.721ZM587.268 380.721H586.446V380.637C586.026 380.695 585.599 380.754 585.172 380.818V382.018H591.057C589.821 381.564 588.558 381.132 587.268 380.721ZM593.134 380.721H586.446V349.92C586.444 348.866 586.105 347.841 585.482 346.999C584.858 346.157 583.983 345.544 582.988 345.252C582.56 345.121 582.116 345.055 581.669 345.057H524.985C523.718 345.059 522.504 345.572 521.609 346.483C520.713 347.395 520.209 348.631 520.208 349.92V381.694C520.208 382.983 520.712 384.22 521.607 385.132C522.503 386.044 523.718 386.557 524.985 386.557H593.134C593.839 386.556 594.519 386.29 595.045 385.81C595.57 385.331 595.903 384.671 595.98 383.957C595.993 383.851 596 383.745 596 383.639C595.998 382.866 595.696 382.124 595.159 381.577C594.622 381.03 593.893 380.722 593.134 380.721ZM594.726 383.639C594.726 384.069 594.558 384.481 594.259 384.785C593.961 385.089 593.556 385.26 593.134 385.26H524.985C524.056 385.26 523.165 384.884 522.508 384.215C521.851 383.546 521.482 382.639 521.482 381.694V349.92C521.482 348.975 521.851 348.068 522.508 347.399C523.165 346.731 524.056 346.355 524.985 346.354H581.669C581.942 346.353 582.213 346.386 582.478 346.451C583.244 346.638 583.927 347.081 584.416 347.711C584.904 348.34 585.171 349.118 585.172 349.92V382.018H593.134C593.52 382.018 593.894 382.162 594.185 382.422C594.475 382.682 594.663 383.041 594.713 383.432C594.719 383.503 594.726 383.568 594.726 383.639ZM587.268 380.721H586.446V380.637C586.026 380.695 585.599 380.754 585.172 380.818V382.018H591.057C589.821 381.564 588.558 381.132 587.268 380.721Z" fill="#3F3D56"/>
<path d="M553.325 369.699C555.436 369.699 557.146 367.957 557.146 365.808C557.146 363.659 555.436 361.917 553.325 361.917C551.214 361.917 549.504 363.659 549.504 365.808C549.504 367.957 551.214 369.699 553.325 369.699Z" fill="#60A9F6"/>
<path d="M211.996 46.2774C211.982 46.5737 211.991 46.8706 212.023 47.1655L192.023 64.2543L186.058 62.0558L181.623 70.7861L194.663 77.1053L216.527 52.1252C217.632 52.3292 218.77 52.186 219.793 51.7149C220.815 51.2438 221.672 50.467 222.25 49.4878C222.828 48.5086 223.1 47.3735 223.029 46.2334C222.958 45.0933 222.547 44.0022 221.852 43.1053C221.157 42.2084 220.211 41.5481 219.138 41.2123C218.066 40.8765 216.918 40.8811 215.848 41.2254C214.778 41.5698 213.837 42.2376 213.149 43.14C212.461 44.0424 212.059 45.1368 211.996 46.2774L211.996 46.2774Z" fill="#FFB8B8"/>
<path d="M185.173 74.9737L165.859 67.8764C164.086 67.2248 162.64 65.8828 161.839 64.1456C161.038 62.4085 160.947 60.4184 161.587 58.6132C162.227 56.8081 163.545 55.3357 165.252 54.52C166.958 53.7043 168.913 53.612 170.686 54.2636L189.999 61.3609C190.292 61.4684 190.561 61.6336 190.791 61.8469C191.021 62.0603 191.207 62.3176 191.339 62.6043C191.471 62.891 191.547 63.2014 191.561 63.5178C191.576 63.8342 191.529 64.1504 191.423 64.4483L188.206 73.5238C187.992 74.125 187.552 74.6152 186.984 74.887C186.415 75.1588 185.764 75.19 185.173 74.9737V74.9737Z" fill="#CCCCCC"/>
<path d="M171.028 144.116L177.483 144.115L180.553 118.768L171.027 118.768L171.028 144.116Z" fill="#FFB8B8"/>
<path d="M189.931 150.217L169.645 150.218L169.645 142.238L182.093 142.238C184.172 142.237 186.165 143.078 187.635 144.574C189.105 146.071 189.931 148.1 189.931 150.217L189.931 150.217Z" fill="#2F2E41"/>
<path d="M155.076 135.626L160.356 139.406L177.188 120.47L169.396 114.892L155.076 135.626Z" fill="#FFB8B8"/>
<path d="M166.455 150.391L149.861 138.512L154.369 131.984L164.552 139.273C166.252 140.491 167.408 142.346 167.765 144.431C168.122 146.515 167.651 148.659 166.455 150.391L166.455 150.391Z" fill="#2F2E41"/>
<path d="M185.152 98.4557C185.152 98.4557 201.26 96.5209 198.368 107.163C195.477 117.804 163.262 126.995 163.262 126.995L185.152 98.4557Z" fill="#FFB8B8"/>
<path d="M174.065 44.1562C181.207 44.1562 186.996 38.262 186.996 30.9911C186.996 23.7202 181.207 17.826 174.065 17.826C166.923 17.826 161.134 23.7202 161.134 30.9911C161.134 38.262 166.923 44.1562 174.065 44.1562Z" fill="#FFB8B8"/>
<path d="M132.827 124.816C125.469 116.093 122.894 102.706 134.628 91.5714C137.526 88.8891 140.808 86.6705 144.36 84.9916L153.817 58.0651C154.8 55.2533 156.601 52.8133 158.98 51.0707C161.36 49.328 164.205 48.3655 167.136 48.3116C169.981 48.1865 172.795 48.9615 175.191 50.53C177.586 52.0985 179.446 54.3837 180.515 57.0716C181.67 59.8061 181.802 62.8764 180.886 65.7033C178.071 74.6291 174.374 83.2413 169.852 91.4075L170.341 95.3905L194.245 97.5534L194.022 97.9224C193.906 98.115 182.207 116.263 167.24 128.308C162.123 132.427 156.831 134.134 151.837 134.133C144.263 134.133 137.375 130.207 132.827 124.816Z" fill="#CCCCCC"/>
<path d="M130.571 35.1214C132.859 32.346 133.84 28.7157 134.629 25.1828C135.878 19.5928 136.845 13.8125 139.62 8.82403C142.394 3.83563 147.494 -0.297773 153.116 0.0168536C158.706 0.329684 163.226 4.90872 165.625 10.1188C166.206 9.88904 166.828 9.78613 167.45 9.81669C168.073 9.84725 168.682 10.0106 169.239 10.2961C170.968 11.2601 171.614 14.0002 170.175 15.3718C171.689 14.638 173.337 14.2367 175.013 14.1942C176.689 14.1517 178.355 14.4688 179.903 15.1249C181.893 15.9876 183.611 17.3924 184.868 19.1849C186.125 20.9774 186.871 23.0881 187.026 25.2847C187.086 26.1763 186.966 27.071 186.673 27.9133C186.38 28.7556 185.92 29.5277 185.321 30.1817C182.84 32.782 179.331 31.885 176.211 31.2226C173.264 30.5969 169.675 30.428 168.014 33.2868C167.36 34.478 167.177 35.8785 167.502 37.2025C168.138 40.0563 170.214 42.0441 172.227 43.9465L172.556 44.5694C165.448 45.9807 157.685 41.0379 155.82 33.9127C153.955 26.7874 158.273 18.5675 165.129 16.1905C164.673 16.205 164.221 16.0951 163.82 15.8723C163.42 15.6496 163.085 15.3219 162.85 14.9232C162.615 14.5245 162.49 14.0693 162.485 13.6045C162.481 13.1397 162.599 12.6823 162.827 12.2795C160.929 11.1971 158.782 10.6515 156.607 10.6994C153.065 10.936 150 13.5025 148.158 16.5904C146.314 19.6783 145.48 23.2624 144.634 26.7717C143.789 30.2811 142.874 33.8575 140.903 36.8627C139.538 38.9441 137.715 40.6719 135.577 41.9082C133.44 43.1445 131.048 43.8551 128.593 43.9833C126.139 44.1115 123.688 43.6537 121.438 42.6465C119.187 41.6394 117.2 40.1107 115.633 38.1824C118.109 39.4048 120.91 39.7674 123.608 39.2146C126.306 38.6618 128.752 37.224 130.571 35.1214Z" fill="#2F2E41"/>
<path d="M225.547 70.9994C235.927 70.9994 244.343 62.4317 244.343 51.8629C244.343 41.2941 235.927 32.7264 225.547 32.7264C215.166 32.7264 206.75 41.2941 206.75 51.8629C206.75 62.4317 215.166 70.9994 225.547 70.9994Z" fill="#60A9F6"/>
<path d="M224.969 62.6251C224.893 62.548 224.832 62.4562 224.791 62.3553C224.75 62.2543 224.729 62.1461 224.729 62.0368V40.857C224.729 40.6363 224.815 40.4247 224.969 40.2687C225.122 40.1127 225.33 40.0251 225.547 40.0251C225.763 40.0251 225.971 40.1127 226.124 40.2687C226.278 40.4247 226.364 40.6363 226.364 40.857V62.0368C226.364 62.2013 226.316 62.3622 226.226 62.499C226.136 62.6358 226.009 62.7424 225.859 62.8054C225.71 62.8684 225.546 62.8849 225.387 62.8528C225.229 62.8207 225.083 62.7415 224.969 62.6251H224.969Z" fill="white"/>
<path d="M214.567 52.0353C214.453 51.9189 214.375 51.7706 214.343 51.6093C214.312 51.4479 214.328 51.2806 214.39 51.1286C214.452 50.9766 214.557 50.8467 214.691 50.7552C214.825 50.6638 214.983 50.615 215.145 50.615H235.948C236.165 50.615 236.373 50.7026 236.526 50.8587C236.679 51.0147 236.765 51.2263 236.765 51.4469C236.765 51.6676 236.679 51.8792 236.526 52.0352C236.373 52.1912 236.165 52.2789 235.948 52.2789H215.145C215.038 52.2791 214.931 52.2576 214.832 52.2158C214.733 52.174 214.643 52.1126 214.567 52.0353Z" fill="white"/>
<path d="M212.644 64.6627C212.508 64.9247 212.392 65.1973 212.297 65.4779L187.059 72.2916L182.579 67.7206L174.919 73.7037L184.084 85.0665L214.304 71.9167C215.219 72.579 216.309 72.9423 217.431 72.9582C218.553 72.9741 219.653 72.6419 220.585 72.0057C221.517 71.3695 222.237 70.4595 222.649 69.3968C223.06 68.334 223.145 67.1689 222.89 66.0563C222.635 64.9437 222.054 63.9363 221.223 63.1682C220.393 62.4002 219.352 61.9077 218.24 61.7565C217.128 61.6052 215.997 61.8022 214.997 62.3213C213.998 62.8405 213.177 63.6571 212.644 64.6626L212.644 64.6627Z" fill="#FFB8B8"/>
<path d="M176.384 79.0305L161.865 64.2486C161.203 63.5771 160.678 62.7793 160.319 61.9009C159.961 61.0225 159.776 60.0807 159.775 59.1293C159.774 58.178 159.957 57.2359 160.315 56.3568C160.672 55.4778 161.196 54.6791 161.857 54.0064C162.517 53.3337 163.302 52.8003 164.165 52.4366C165.029 52.073 165.954 51.8862 166.888 51.887C167.823 51.8878 168.748 52.0762 169.611 52.4414C170.473 52.8065 171.257 53.3413 171.917 54.0152L186.436 68.797C186.656 69.0209 186.83 69.2868 186.949 69.5794C187.068 69.872 187.13 70.1857 187.13 70.5024C187.13 70.8191 187.068 71.1328 186.949 71.4254C186.83 71.718 186.656 71.9839 186.436 72.2078L179.735 79.0305C179.29 79.482 178.687 79.7356 178.059 79.7356C177.431 79.7356 176.829 79.482 176.384 79.0305V79.0305Z" fill="#CCCCCC"/>
</g>
<circle cx="140.5" cy="260.5" r="22.5" fill="#2A8BF2" fill-opacity="0.2"/>
<circle cx="245.5" cy="364.5" r="22.5" fill="#84C1FF"/>
<circle cx="312" cy="377" r="30" fill="#B4D9FF"/>
<circle cx="425.5" cy="285.5" r="22.5" fill="#65AEF6"/>
<circle cx="267.5" cy="215.5" r="22.5" fill="#84C1FF"/>
<circle cx="190" cy="316" r="40" fill="#3A99F8"/>
<circle cx="201.5" cy="234.5" r="32.5" fill="#76BBFF"/>
<circle cx="366.5" cy="322.5" r="32.5" fill="#84C1FF"/>
<circle cx="279" cy="290" r="45" fill="#B4D9FF"/>
<defs>
<clipPath id="clip0">
<rect width="629" height="463" fill="white"/>
</clipPath>
</defs>
</svg>
